{"title":"The Art of the Steal  2013 BRRip 720p Dual Audio Hindi English G","uid":10081473,"size":713295730,"categoryP":"video","categoryS":"movies","magnet":"?xt=urn:btih:bdf57729cc1dd7d5d3dfe3edac1ca890608430a2&amp;dn=The+Art+of+the+Steal++2013+BRRip+720p+Dual+Audio+Hindi+English+G&amp;tr=udp%3A%2F%2Ftracker.openbittorrent.com%3A80&amp;tr=udp%3A%2F%2Fopen.demonii.com%3A1337&amp;tr=udp%3A%2F%2Ftracker.coppersurfer.tk%3A6969&amp;tr=udp%3A%2F%2Fexodus.desync.com%3A6969","seeders":4,"leechers":0,"uploader":"jatt13","files":1,"time":1399013141,"description":"Video\nID                             : 1\nFormat                         : AVC\nFormat/Info                    : Advanced Video Codec\nFormat profile                 : &lt;a class=&quot;__cf_email__&quot; href=&quot;/cdn-cgi/l/email-protection&quot; data-cfemail=&quot;3078595758707c041e00&quot;&gt;[email&amp;#160;protected]&lt;/a&gt;&lt;script cf-hash='f9e31' type=&quot;text/javascript&quot;&gt;\n/* &lt;![CDATA[ */!function(){try{var t=&quot;currentScript&quot;in document?document.currentScript:function(){for(var t=document.getElementsByTagName(&quot;script&quot;),e=t.length;e--;)if(t[e].getAttribute(&quot;cf-hash&quot;))return t[e]}();if(t&amp;&amp;t.previousSibling){var e,r,n,i,c=t.previousSibling,a=c.getAttribute(&quot;data-cfemail&quot;);if(a){for(e=&quot;&quot;,r=parseInt(a.substr(0,2),16),n=2;a.length-n;n+=2)i=parseInt(a.substr(n,2),16)^r,e+=String.fromCharCode(i);e=document.createTextNode(e),c.parentNode.replaceChild(e,c)}}}catch(u){}}();/* ]]&gt; */&lt;/script&gt;\nFormat settings, CABAC         : Yes\nFormat settings, ReFrames      : 8 frames\nCodec ID                       : V_MPEG4/ISO/AVC\nBit rate                       : 951 Kbps\nWidth                          : 1 280 pixels\nHeight                         : 534 pixels\nDisplay aspect ratio           : 2.40:1\nOriginal display aspect ratio  : 2.40:1\nFrame rate mode                : Variable\nStandard                       : Component\nColor space                    : YUV\nChroma subsampling             : 4:2:0\nBit depth                      : 8 bits\nScan type                      : Progressive\nTitle                          : GOPI SAHI\nWriting library                : x264 core 142 r2409\nLanguage                       : English\nDefault                        : Yes\nForced                         : No\nColor primaries                : BT.709\nTransfer characteristics       : BT.709\nMatrix coefficients            : BT.709\n\nAudio #1\nID                             : 2\nFormat                         : MPEG Audio\nFormat version                 : Version 1\nFormat profile                 : Layer 3\nMode                           : Joint stereo\nMode extension                 : MS Stereo\nCodec ID                       : A_MPEG/L3\nCodec ID/Hint                  : MP3\nDuration                       : 1h 30mn\nBit rate mode                  : Constant\nBit rate                       : 64.0 Kbps\nChannel count                  : 2 channels\nSampling rate                  : 44.1 KHz\nCompression mode               : Lossy\nDelay relative to video        : -42ms\nStream size                    : 41.3 MiB (6%)\nTitle                          : GOPI SAHI\nWriting library                : LAMEUUULAME3.98.2\nLanguage                       : Hindi\nDefault                        : Yes\nForced                         : No\n\nAudio #2\nID                             : 3\nFormat                         : MPEG Audio\nFormat version                 : Version 1\nFormat profile                 : Layer 3\nMode                           : Joint stereo\nMode extension                 : MS Stereo\nCodec ID                       : A_MPEG/L3\nCodec ID/Hint                  : MP3\nDuration                       : 1h 30mn\nBit rate mode                  : Constant\nBit rate                       : 56.0 Kbps\nChannel count                  : 2 channels\nSampling rate                  : 44.1 KHz\nCompression mode               : Lossy\nDelay relative to video        : -42ms\nStream size                    : 36.1 MiB (5%)\nTitle                          : GOPI SAHI\nWriting library                : LAME3.98.2\nLanguage                       : English\nDefault                        : No\nForced                         : No\n[IMG]http://i.imgur.com/D6CWq7A.jpg[/IMG]\n[IMG]http://i.imgur.com/ZvInAIO.jpg[/IMG]\n[IMG]http://i.imgur.com/Zrz9kvw.jpg[/IMG]\n[IMG]http://i.imgur.com/jGcbRIl.jpg[/IMG]\n[IMG]http://i.imgur.com/3dlw4gm.jpg[/IMG]","torrent":{"xt":"urn:btih:bdf57729cc1dd7d5d3dfe3edac1ca890608430a2","amp;dn":"The+Art+of+the+Steal++2013+BRRip+720p+Dual+Audio+Hindi+English+G","amp;tr":["udp%3A%2F%2Ftracker.openbittorrent.com%3A80","udp%3A%2F%2Fopen.demonii.com%3A1337","udp%3A%2F%2Ftracker.coppersurfer.tk%3A6969","udp%3A%2F%2Fexodus.desync.com%3A6969"],"infoHash":"bdf57729cc1dd7d5d3dfe3edac1ca890608430a2","infoHashBuffer":{"type":"Buffer","data":[189,245,119,41,204,29,215,213,211,223,227,237,172,28,168,144,96,132,48,162]},"announce":[],"urlList":[]}}